# xmcd
#
# Track frame offsets:
#	150
#	33850
#	68350
#	97632
#	112725
#	138487
#	180787
#
# Disc length: 2599 seconds
#
# Revision: 1
# Processed by: cddbd v1.4PL0 Copyright (c) Steve Scherf et al.
# Submitted via: audiograbber 1.81.01
#
DISCID=3f0a2507
DTITLE=Livin´ Blues - Live ´75
DYEAR=1975
DGENRE=Blues
TTITLE0=Black Spider Woman
TTITLE1=I´m A Rambler
TTITLE2=Hoochie Coochie Man
TTITLE3=Crazy Loe
TTITLE4=I Wonder
TTITLE5=L.B. Boogie
TTITLE6=Boney Marony
EXTD=
EXTT0=
EXTT1=
EXTT2=
EXTT3=
EXTT4=
EXTT5=
EXTT6=
PLAYORDER=
